HIERARCHY
ROOT joint_Root
{
	OFFSET 0.0 0.0 0.0
	CHANNELS 6 Xposition Yposition Zposition Zrotation Xrotation Yrotation 
	JOINT Hips
	{
		OFFSET 4.5925 91.4895 -427.239
		CHANNELS 6 Xposition Yposition Zposition Zrotation Xrotation Yrotation 
		JOINT Spine
		{
			OFFSET 15.7357 0.0 0.0
			CHANNELS 6 Xposition Yposition Zposition Zrotation Xrotation Yrotation 
			JOINT Chest
			{
				OFFSET 8.98455 -0.406207 0.0
				CHANNELS 6 Xposition Yposition Zposition Zrotation Xrotation Yrotation 
				JOINT Neck
				{
					OFFSET 16.3773 0.0 0.0
					CHANNELS 6 Xposition Yposition Zposition Zrotation Xrotation Yrotation 
					JOINT Head
					{
						OFFSET 6.45672 0.0 0.0
						CHANNELS 6 Xposition Yposition Zposition Zrotation Xrotation Yrotation 
						End Site
						{
							OFFSET 0.0 0.0 0.0
						}
					}
				}
				JOINT Shoulder_L
				{
					OFFSET 12.9942 -0.242716 4.98039
					CHANNELS 6 Xposition Yposition Zposition Zrotation Xrotation Yrotation 
					JOINT UpperArm_L
					{
						OFFSET 5.34809 0.0 0.0
						CHANNELS 6 Xposition Yposition Zposition Zrotation Xrotation Yrotation 
						JOINT LowerArm_L
						{
							OFFSET 24.3286 1.87007e-05 0.0
							CHANNELS 6 Xposition Yposition Zposition Zrotation Xrotation Yrotation 
							JOINT Hand_L
							{
								OFFSET 22.2916 0.0 0.0
								CHANNELS 6 Xposition Yposition Zposition Zrotation Xrotation Yrotation 
								End Site
								{
									OFFSET 0.0 0.0 0.0
								}
							}
						}
					}
				}
				JOINT Shoulder_R
				{
					OFFSET 12.9945 -0.242716 -4.98039
					CHANNELS 6 Xposition Yposition Zposition Zrotation Xrotation Yrotation 
					JOINT UpperArm_R
					{
						OFFSET -5.34813 0.0 0.0
						CHANNELS 6 Xposition Yposition Zposition Zrotation Xrotation Yrotation 
						JOINT LowerArm_R
						{
							OFFSET -24.3289 0.000322201 0.0
							CHANNELS 6 Xposition Yposition Zposition Zrotation Xrotation Yrotation 
							JOINT Hand_R
							{
								OFFSET -22.2915 -0.000108084 0.0
								CHANNELS 6 Xposition Yposition Zposition Zrotation Xrotation Yrotation 
								End Site
								{
									OFFSET 0.0 0.0 0.0
								}
							}
						}
					}
				}
			}
		}
		JOINT UpperLeg_L
		{
			OFFSET -2.19248 -6.46944 0.0
			CHANNELS 6 Xposition Yposition Zposition Zrotation Xrotation Yrotation 
			JOINT LowerLeg_L
			{
				OFFSET 39.0811 0.0 -1.23785e-05
				CHANNELS 6 Xposition Yposition Zposition Zrotation Xrotation Yrotation 
				JOINT Foot_L
				{
					OFFSET 40.9854 0.0 -1.26872e-05
					CHANNELS 6 Xposition Yposition Zposition Zrotation Xrotation Yrotation 
					JOINT Toes_L
					{
						OFFSET 11.7543 0.0 0.0
						CHANNELS 6 Xposition Yposition Zposition Zrotation Xrotation Yrotation 
						End Site
						{
							OFFSET 0.0 0.0 0.0
						}
					}
				}
			}
		}
		JOINT UpperLeg_R
		{
			OFFSET -2.19251 6.46944 0.0
			CHANNELS 6 Xposition Yposition Zposition Zrotation Xrotation Yrotation 
			JOINT LowerLeg_R
			{
				OFFSET -39.0811 -0.00228153 -0.0401928
				CHANNELS 6 Xposition Yposition Zposition Zrotation Xrotation Yrotation 
				JOINT Foot_R
				{
					OFFSET -40.9854 0.0 0.0
					CHANNELS 6 Xposition Yposition Zposition Zrotation Xrotation Yrotation 
					JOINT Toes_R
					{
						OFFSET -11.7543 0.0 0.0
						CHANNELS 6 Xposition Yposition Zposition Zrotation Xrotation Yrotation 
						End Site
						{
							OFFSET 0.0 0.0 0.0
						}
					}
				}
			}
		}
	}
}
MOTION
Frames:	9
Frame Time:	0.0333333
0.000000 0.000000 0.000000 0.000000 0.000000 -0.000000 -2.599120 90.425300 -4.663900 88.698700 0.001251 14.223900 15.735700 0.000005 -0.000001 87.887400 75.615700 -88.059700 8.984550 -0.406207 -0.000000 20.983800 -1.054300 -0.150708 16.377300 -0.000001 -0.000001 8.145830 -3.166110 2.513350 6.456720 -0.000001 -0.000000 -10.764000 -2.984210 2.540920 12.994200 -0.242716 4.980390 -91.183000 6.377010 -79.467500 5.348090 -0.000007 -0.000001 -56.950400 35.360600 -29.390100 24.328600 0.000019 0.000005 10.251500 22.788700 -25.029000 22.291600 -0.000001 0.000005 10.538400 5.248160 1.481340 12.994500 -0.242716 -4.980390 88.908000 10.223300 -83.869800 -5.348130 -0.000001 -0.000004 -59.312100 29.868800 -26.518500 -24.328900 0.000322 -0.000009 4.058240 7.774640 -27.681700 -22.291500 -0.000108 -0.000004 19.368700 5.388400 -2.564370 -2.192480 -6.469440 -0.000000 -171.619000 -12.266500 -1.412770 39.081100 -0.000007 -0.000012 -0.183854 0.272811 33.977400 40.985400 -0.000006 -0.000013 -1.012280 5.948060 -67.727800 11.754300 -0.000000 0.000003 -0.000152 -0.001466 -16.633300 -2.192510 6.469440 -0.000001 173.980000 25.006900 -178.466000 -39.081100 -0.002282 -0.040193 -0.198798 0.312301 32.907600 -40.985400 0.000008 0.000006 5.177930 13.712100 -69.658000 -11.754300 -0.000006 -0.000006 -0.002894 -0.039393 -18.175100
0.000000 0.000000 0.000000 0.000000 0.000000 -0.000000 -2.605200 90.428300 -4.678250 88.705500 -0.004402 14.253100 15.735700 0.000005 -0.000001 87.865500 75.597200 -88.036700 8.984550 -0.406207 -0.000000 21.020500 -1.066190 -0.145759 16.377300 -0.000001 -0.000001 8.162030 -3.161500 2.530360 6.456720 -0.000001 -0.000000 -10.804900 -2.984580 2.512690 12.994200 -0.242716 4.980390 -91.192100 6.415040 -79.449500 5.348090 -0.000007 -0.000001 -56.960000 35.253500 -29.405700 24.328600 0.000019 0.000005 10.211000 22.736700 -24.987600 22.291600 -0.000001 0.000005 10.602700 5.250270 1.425480 12.994500 -0.242716 -4.980390 88.898200 10.239100 -83.824800 -5.348130 -0.000001 -0.000004 -59.253500 29.470700 -26.586300 -24.328900 0.000322 -0.000009 4.088440 7.588050 -28.432700 -22.291500 -0.000108 -0.000004 19.578500 5.391880 -2.675580 -2.192480 -6.469440 -0.000000 -171.619000 -12.269300 -1.382410 39.081100 -0.000007 -0.000012 -0.181361 0.269300 33.958800 40.985400 -0.000006 -0.000013 -1.019970 5.929640 -67.708000 11.754300 -0.000000 0.000003 -0.000159 -0.001526 -16.635500 -2.192510 6.469440 -0.000001 173.969000 25.015400 -178.436000 -39.081100 -0.002282 -0.040193 -0.193781 0.304677 32.896600 -40.985400 0.000008 0.000006 5.189450 13.726100 -69.650100 -11.754300 -0.000006 -0.000006 -0.002901 -0.039475 -18.178500
0.000000 0.000000 0.000000 0.000000 0.000000 -0.000000 -2.605390 90.429300 -4.691740 88.730700 -0.031205 14.266200 15.735700 0.000005 -0.000001 87.866300 75.584300 -88.042900 8.984550 -0.406207 -0.000000 21.046300 -1.067370 -0.156251 16.377300 -0.000001 -0.000001 8.182780 -3.187360 2.498390 6.456720 -0.000001 -0.000000 -10.830600 -2.956980 2.558740 12.994200 -0.242716 4.980390 -91.192000 6.420020 -79.458900 5.348090 -0.000007 -0.000001 -56.933800 35.199500 -29.427500 24.328600 0.000019 0.000005 10.185000 22.674600 -24.987500 22.291600 -0.000001 0.000005 10.627800 5.250040 1.431760 12.994500 -0.242716 -4.980390 88.882700 10.269800 -83.757000 -5.348130 -0.000001 -0.000004 -59.229200 28.964200 -26.655000 -24.328900 0.000322 -0.000009 4.178280 7.448950 -29.407600 -22.291500 -0.000108 -0.000004 19.708300 5.392310 -2.689330 -2.192480 -6.469440 -0.000000 -171.628000 -12.315300 -1.365610 39.081100 -0.000007 -0.000012 -0.182146 0.270654 33.940200 40.985400 -0.000006 -0.000013 -1.014630 5.953920 -67.687200 11.754300 -0.000000 0.000003 -0.000167 -0.001590 -16.637800 -2.192510 6.469440 -0.000001 173.962000 24.962700 -178.449000 -39.081100 -0.002282 -0.040193 -0.195298 0.306873 32.909200 -40.985400 0.000008 0.000006 5.188660 13.701100 -69.642500 -11.754300 -0.000006 -0.000006 -0.002816 -0.038506 -18.139000
0.000000 0.000000 0.000000 0.000000 0.000000 -0.000000 -2.617280 90.427600 -4.714030 88.722200 -0.040786 14.307200 15.735700 0.000005 -0.000001 87.828200 75.551900 -87.993500 8.984550 -0.406207 -0.000000 21.110500 -1.087100 -0.129264 16.377300 -0.000001 -0.000001 8.146410 -3.173030 2.471510 6.456720 -0.000001 -0.000000 -10.838800 -2.942020 2.560700 12.994200 -0.242716 4.980390 -91.194900 6.428310 -79.446900 5.348090 -0.000007 -0.000001 -56.894000 35.167000 -29.475400 24.328600 0.000019 0.000005 10.214000 22.724200 -25.005800 22.291600 -0.000001 0.000005 10.628800 5.248300 1.477590 12.994500 -0.242716 -4.980390 88.867000 10.293900 -83.684600 -5.348130 -0.000001 -0.000004 -59.255000 28.280200 -26.726600 -24.328900 0.000322 -0.000009 4.390030 7.452360 -30.627000 -22.291500 -0.000108 -0.000004 19.874200 5.393770 -2.736130 -2.192480 -6.469440 -0.000000 -171.604000 -12.324900 -1.342990 39.081100 -0.000007 -0.000012 -0.180063 0.267444 33.951600 40.985400 -0.000006 -0.000013 -1.014620 5.965960 -67.677500 11.754300 -0.000000 0.000003 -0.000168 -0.001602 -16.638300 -2.192510 6.469440 -0.000001 173.960000 24.976100 -178.424000 -39.081100 -0.002282 -0.040193 -0.193892 0.304630 32.915200 -40.985400 0.000008 0.000006 5.205710 13.723200 -69.634200 -11.754300 -0.000006 -0.000006 -0.002803 -0.038350 -18.132700
0.000000 0.000000 0.000000 0.000000 0.000000 -0.000000 -2.612100 90.420400 -4.732740 88.729600 -0.072145 14.303400 15.735700 0.000005 -0.000001 87.817800 75.537800 -87.971800 8.984550 -0.406207 -0.000000 21.138600 -1.091920 -0.105539 16.377300 -0.000001 -0.000001 8.142530 -3.188530 2.480470 6.456720 -0.000001 -0.000000 -10.830700 -2.922300 2.506460 12.994200 -0.242716 4.980390 -91.202500 6.467920 -79.444500 5.348090 -0.000007 -0.000001 -56.815400 35.118200 -29.534800 24.328600 0.000019 0.000005 10.123300 22.502700 -25.009600 22.291600 -0.000001 0.000005 10.471600 5.248380 1.475590 12.994500 -0.242716 -4.980390 88.849000 10.315700 -83.598400 -5.348130 -0.000001 -0.000004 -59.238400 27.579900 -26.828300 -24.328900 0.000322 -0.000009 4.528250 7.260010 -32.081800 -22.291500 -0.000108 -0.000004 20.189300 5.396200 -2.814480 -2.192480 -6.469440 -0.000000 -171.607000 -12.354900 -1.370640 39.081100 -0.000007 -0.000012 -0.181185 0.268776 33.984700 40.985400 -0.000006 -0.000013 -1.011200 5.965470 -67.683000 11.754300 -0.000000 0.000003 -0.000155 -0.001496 -16.634400 -2.192510 6.469440 -0.000001 173.966000 24.946800 -178.472000 -39.081100 -0.002282 -0.040193 -0.196944 0.308809 32.960600 -40.985400 0.000008 0.000006 5.209230 13.715500 -69.639600 -11.754300 -0.000006 -0.000006 -0.003039 -0.041041 -18.242200
0.000000 0.000000 0.000000 0.000000 0.000000 -0.000000 -2.618120 90.425700 -4.752370 88.734600 -0.080407 14.354800 15.735700 0.000005 -0.000001 87.746400 75.511400 -87.893600 8.984550 -0.406207 -0.000000 21.190100 -1.128190 -0.084477 16.377300 -0.000001 -0.000001 8.208320 -3.184370 2.457600 6.456720 -0.000001 -0.000000 -10.838000 -2.906870 2.515970 12.994200 -0.242716 4.980390 -91.207500 6.485590 -79.429500 5.348090 -0.000007 -0.000001 -56.753400 35.144600 -29.554300 24.328600 0.000019 0.000005 10.170600 22.602100 -25.022200 22.291600 -0.000001 0.000005 10.623300 5.247930 1.487290 12.994500 -0.242716 -4.980390 88.832400 10.332000 -83.516900 -5.348130 -0.000001 -0.000004 -59.165400 26.904300 -27.015100 -24.328900 0.000322 -0.000009 4.616670 6.970350 -33.646400 -22.291500 -0.000108 -0.000004 20.359400 5.395950 -2.806280 -2.192480 -6.469440 -0.000000 -171.594000 -12.351200 -1.313210 39.081100 -0.000007 -0.000012 -0.184731 0.274370 33.952400 40.985400 -0.000006 -0.000013 -1.022260 5.948660 -67.653700 11.754300 -0.000000 0.000003 -0.000166 -0.001581 -16.637500 -2.192510 6.469440 -0.000001 173.958000 24.911200 -178.424000 -39.081100 -0.002282 -0.040193 -0.194226 0.304882 32.937900 -40.985400 0.000008 0.000006 5.205990 13.698500 -69.615000 -11.754300 -0.000006 -0.000006 -0.002822 -0.038571 -18.141600
0.000000 0.000000 0.000000 0.000000 0.000000 -0.000000 -2.618390 90.420600 -4.777610 88.716400 -0.093576 14.362800 15.735700 0.000005 -0.000001 87.676600 75.489800 -87.811200 8.984550 -0.406207 -0.000000 21.232300 -1.162760 -0.052286 16.377300 -0.000001 -0.000001 8.247590 -3.230290 2.458450 6.456720 -0.000001 -0.000000 -10.815500 -2.895710 2.528360 12.994200 -0.242716 4.980390 -91.202000 6.479350 -79.466700 5.348090 -0.000007 -0.000001 -56.774200 35.023000 -29.563400 24.328600 0.000019 0.000005 10.181900 22.676200 -24.979000 22.291600 -0.000001 0.000005 10.653700 5.250430 1.421140 12.994500 -0.242716 -4.980390 88.820400 10.338100 -83.454700 -5.348130 -0.000001 -0.000004 -59.118300 26.104300 -27.277400 -24.328900 0.000322 -0.000009 4.839830 6.858270 -35.345500 -22.291500 -0.000108 -0.000004 20.361800 5.395880 -2.804120 -2.192480 -6.469440 -0.000000 -171.599000 -12.296700 -1.345680 39.081100 -0.000007 -0.000012 -0.181114 0.268600 33.991700 40.985400 -0.000006 -0.000013 -1.029340 5.899810 -67.658600 11.754300 -0.000000 0.000003 -0.000152 -0.001469 -16.633400 -2.192510 6.469440 -0.000001 173.975000 24.947200 -178.445000 -39.081100 -0.002282 -0.040193 -0.195446 0.306522 32.958600 -40.985400 0.000008 0.000006 5.223750 13.718600 -69.608300 -11.754300 -0.000006 -0.000006 -0.002790 -0.038207 -18.126900
0.000000 0.000000 0.000000 0.000000 0.000000 -0.000000 -2.618360 90.422300 -4.800830 88.735400 -0.143284 14.397600 15.735700 0.000005 -0.000001 87.628500 75.462600 -87.754300 8.984550 -0.406207 -0.000000 21.285800 -1.187600 -0.029546 16.377300 -0.000001 -0.000001 8.299030 -3.236500 2.457740 6.456720 -0.000001 -0.000000 -10.797800 -2.911840 2.502820 12.994200 -0.242716 4.980390 -91.218100 6.549700 -79.440700 5.348090 -0.000007 -0.000001 -56.734100 34.957300 -29.569800 24.328600 0.000019 0.000005 10.140000 22.582700 -24.972700 22.291600 -0.000001 0.000005 10.687300 5.251130 1.402820 12.994500 -0.242716 -4.980390 88.807100 10.335800 -83.379700 -5.348130 -0.000001 -0.000004 -58.960300 25.378700 -27.642500 -24.328900 0.000322 -0.000009 4.891320 6.489690 -37.137900 -22.291500 -0.000108 -0.000004 20.556000 5.395380 -2.787800 -2.192480 -6.469440 -0.000000 -171.587000 -12.360600 -1.300870 39.081100 -0.000007 -0.000012 -0.185312 0.275048 33.970200 40.985400 -0.000006 -0.000013 -1.032250 5.901780 -67.636300 11.754300 -0.000000 0.000003 -0.000156 -0.001500 -16.634500 -2.192510 6.469440 -0.000001 173.968000 24.890300 -178.433000 -39.081100 -0.002282 -0.040193 -0.190609 0.299011 32.963000 -40.985400 0.000008 0.000006 5.226850 13.712000 -69.596200 -11.754300 -0.000006 -0.000006 -0.003042 -0.041082 -18.243800
0.000000 0.000000 0.000000 0.000000 0.000000 -0.000000 -2.621180 90.415800 -4.825050 88.715800 -0.173228 14.413400 15.735700 0.000005 -0.000001 87.614800 75.438000 -87.726300 8.984550 -0.406207 -0.000000 21.334800 -1.194600 0.001188 16.377300 -0.000001 -0.000001 8.343680 -3.300510 2.502860 6.456720 -0.000001 -0.000000 -10.766400 -2.930840 2.435070 12.994200 -0.242716 4.980390 -91.223400 6.597300 -79.470300 5.348090 -0.000007 -0.000001 -56.697100 34.862300 -29.574800 24.328600 0.000019 0.000005 10.159300 22.636100 -24.966100 22.291600 -0.000001 0.000005 10.714200 5.251080 1.404340 12.994500 -0.242716 -4.980390 88.784500 10.348900 -83.264200 -5.348130 -0.000001 -0.000004 -58.848800 24.573400 -28.077100 -24.328900 0.000322 -0.000009 5.047560 6.268460 -38.976900 -22.291500 -0.000108 -0.000004 20.730700 5.396900 -2.836790 -2.192480 -6.469440 -0.000000 -171.573000 -12.357700 -1.325150 39.081100 -0.000007 -0.000012 -0.180125 0.266881 34.016900 40.985400 -0.000006 -0.000013 -1.031350 5.882380 -67.642900 11.754300 -0.000000 0.000003 -0.000156 -0.001503 -16.634600 -2.192510 6.469440 -0.000001 173.986000 24.892000 -178.452000 -39.081100 -0.002282 -0.040193 -0.194991 0.305455 32.989800 -40.985400 0.000008 0.000006 5.243650 13.741600 -69.591700 -11.754300 -0.000006 -0.000006 -0.002839 -0.038767 -18.149600
